<svg width="46" height="46" viewBox="0 0 46 46" fill="none" xmlns="http://www.w3.org/2000/svg">
<rect width="46" height="46" rx="23" fill="url(#paint0_linear_8652_1417)"/>
<path d="M33.6009 19.6213C33.8572 19.8718 34.0007 20.2105 34 20.5633C33.9993 20.9162 33.8544 21.2544 33.5971 21.5039C33.3398 21.7534 32.9911 21.8938 32.6272 21.8945C32.2633 21.8952 31.914 21.756 31.6557 21.5075L23 13.1144L14.3443 21.5075C14.086 21.756 13.7367 21.8952 13.3728 21.8945C13.0089 21.8938 12.6602 21.7534 12.4029 21.5039C12.1456 21.2544 12.0007 20.9162 12 20.5633C11.9993 20.2105 12.1428 19.8718 12.3991 19.6213L22.0274 10.2852C22.2854 10.035 22.6352 9.89453 23 9.89453C23.3648 9.89453 23.7146 10.035 23.9726 10.2852L33.6009 19.6213Z" fill="#37E992"/>
<path d="M33.6009 31.6213C33.8572 31.8718 34.0007 32.2105 34 32.5633C33.9993 32.9162 33.8544 33.2544 33.5971 33.5039C33.3398 33.7534 32.9911 33.8938 32.6272 33.8945C32.2633 33.8952 31.914 33.756 31.6557 33.5075L23 25.1144L14.3443 33.5075C14.086 33.756 13.7367 33.8952 13.3728 33.8945C13.0089 33.8938 12.6602 33.7534 12.4029 33.5039C12.1456 33.2544 12.0007 32.9162 12 32.5633C11.9993 32.2105 12.1428 31.8718 12.3991 31.6213L22.0274 22.2852C22.2854 22.035 22.6352 21.8945 23 21.8945C23.3648 21.8945 23.7146 22.035 23.9726 22.2852L33.6009 31.6213Z" fill="#37E992"/>
<defs>
<linearGradient id="paint0_linear_8652_1417" x1="23" y1="0" x2="23" y2="46" gradientUnits="userSpaceOnUse">
<stop stop-color="#0D8D5F"/>
<stop offset="1" stop-color="#04271A"/>
</linearGradient>
</defs>
</svg>
